<svg id="svg" version="1.1" xmlns="http://www.w3.org/2000/svg" xmlns:xlink="http://www.w3.org/1999/xlink" width="400" height="400" viewBox="0, 0, 400,400"><g id="svgg"><path id="path0" d="M106.602 88.550 C 55.448 107.953,10.500 125.005,6.716 126.442 C 2.933 127.880,0.138 129.345,0.505 129.697 C 0.872 130.049,46.284 144.968,101.422 162.851 L 201.672 195.365 298.879 163.290 C 411.105 126.258,400.798 129.806,399.036 128.820 C 395.542 126.864,202.715 53.134,201.264 53.199 C 200.354 53.239,157.756 69.148,106.602 88.550 M341.016 153.839 L 337.109 155.213 336.907 196.118 L 336.705 237.023 334.281 239.392 C 329.913 243.662,329.092 249.987,332.296 254.664 L 334.124 257.332 332.296 260.025 L 330.469 262.718 330.469 304.797 L 330.469 346.875 342.188 346.875 L 353.906 346.875 353.906 304.861 L 353.906 262.847 352.043 260.134 L 350.181 257.422 351.777 255.174 C 355.201 250.351,354.299 243.434,349.684 239.122 L 347.656 237.228 347.656 194.786 C 347.656 146.776,348.382 151.248,341.016 153.839 M81.250 189.760 C 81.250 221.482,80.597 218.739,88.150 218.765 C 114.555 218.856,160.005 233.212,191.712 251.478 C 201.693 257.227,199.791 257.215,209.276 251.584 C 240.995 232.749,278.159 220.773,310.352 219.012 L 319.531 218.510 319.531 190.114 C 319.531 174.497,319.441 161.719,319.330 161.719 C 319.220 161.719,292.306 170.661,259.523 181.591 L 199.917 201.464 140.892 181.591 C 108.428 170.661,81.728 161.719,81.558 161.719 C 81.389 161.719,81.250 174.337,81.250 189.760 " stroke="none" fill="#000000" fill-rule="evenodd"></path></g></svg>